<?xml version="1.0" standalone="no"?>
<!DOCTYPE svg PUBLIC "-//W3C//DTD SVG 20010904//EN"
 "http://www.w3.org/TR/2001/REC-SVG-20010904/DTD/svg10.dtd">
<svg version="1.0" xmlns="http://www.w3.org/2000/svg"
 width="508.000000pt" height="508.000000pt" viewBox="0 0 508.000000 508.000000"
 preserveAspectRatio="xMidYMid meet">
<metadata>
Created by potrace 1.14, written by Peter Selinger 2001-2017
</metadata>
<g transform="translate(0.000000,508.000000) scale(0.100000,-0.100000)"
fill="#000000" stroke="none">
<path d="M2429 4616 c-2 -2 -38 -7 -79 -10 -41 -3 -84 -8 -96 -10 -12 -2 -45
-7 -74 -11 -29 -4 -60 -8 -69 -10 -127 -27 -176 -38 -226 -51 -33 -9 -67 -17
-75 -19 -36 -8 -253 -87 -330 -120 -128 -55 -378 -193 -420 -232 -6 -6 -8
-715 -2 -727 2 -4 7 -4 11 1 3 5 29 27 56 48 28 22 52 42 55 45 5 6 137 94
171 115 51 31 81 46 86 42 2 -3 4 -702 4 -1554 l0 -1548 385 0 c248 0 384 4
385 10 1 6 3 332 4 725 2 393 3 723 4 733 1 16 7 18 54 13 309 -36 652 -22
897 35 47 11 95 22 108 25 67 14 252 85 332 127 111 58 241 148 311 216 9 9
27 25 40 36 13 12 35 36 49 54 14 18 35 45 47 60 13 14 27 31 33 38 5 7 10 15
10 19 0 4 6 15 14 23 61 69 155 319 171 456 3 28 8 66 10 85 11 81 6 258 -11
360 -3 19 -7 44 -9 55 -19 131 -110 339 -197 450 -76 97 -216 220 -315 276
-97 55 -293 145 -293 134 0 -3 -17 2 -37 10 -52 20 -182 51 -273 65 -41 6 -88
14 -105 17 -16 2 -55 7 -85 10 -68 6 -536 14 -541 9z m426 -620 c101 -14 235
-45 249 -57 6 -5 17 -9 26 -9 50 0 212 -108 265 -177 42 -55 89 -153 100 -208
5 -22 10 -47 12 -55 8 -29 9 -215 2 -255 -4 -22 -9 -53 -12 -70 -8 -45 -62
-172 -94 -218 -38 -55 -97 -114 -158 -158 -46 -33 -66 -44 -157 -83 -35 -15
-98 -36 -126 -41 -9 -2 -17 -4 -17 -5 0 -1 -9 -3 -20 -5 -40 -5 -111 -15 -150
-20 -83 -11 -446 -4 -510 9 -11 3 -27 5 -35 5 -13 1 -15 81 -15 661 0 621 1
660 18 661 9 1 20 2 25 3 44 10 89 17 152 22 41 3 76 7 78 8 5 6 317 -1 367
-8z"/>
</g>
</svg>
